<?xml version="1.0" standalone="no"?>
<!DOCTYPE svg PUBLIC "-//W3C//DTD SVG 20010904//EN"
 "http://www.w3.org/TR/2001/REC-SVG-20010904/DTD/svg10.dtd">
<svg version="1.0" xmlns="http://www.w3.org/2000/svg"
 width="96.000000pt" height="83.000000pt" viewBox="0 0 96.000000 83.000000"
 preserveAspectRatio="xMidYMid meet">

<g transform="translate(0.000000,83.000000) scale(0.100000,-0.100000)"
fill="#000000" stroke="none">
<path d="M880 790 c-11 -7 -11 -10 -2 -10 7 0 10 -4 7 -10 -3 -5 -2 -10 4 -10
6 0 15 9 21 20 12 22 -3 27 -30 10z"/>
<path d="M783 763 c-47 -27 -95 -72 -88 -83 11 -17 23 -11 27 13 2 14 19 31
50 47 26 14 50 29 54 33 13 13 -11 7 -43 -10z"/>
<path d="M737 649 c8 -8 16 -8 30 0 16 9 14 10 -11 11 -22 0 -27 -3 -19 -11z"/>
<path d="M450 510 c8 -5 20 -10 25 -10 6 0 3 5 -5 10 -8 5 -19 10 -25 10 -5 0
-3 -5 5 -10z"/>
<path d="M410 470 c-6 -11 -15 -18 -19 -15 -5 3 -12 -2 -15 -11 -10 -26 -7
-28 15 -8 21 19 44 54 35 54 -3 0 -10 -9 -16 -20z"/>
<path d="M237 326 c-4 -10 0 -12 14 -9 10 3 16 9 13 14 -8 13 -21 11 -27 -5z"/>
<path d="M485 280 c-16 -17 -24 -30 -19 -30 13 0 59 48 52 55 -2 3 -17 -9 -33
-25z"/>
<path d="M162 246 c-18 -20 -27 -38 -22 -41 6 -4 8 -21 5 -39 -5 -25 -2 -36
17 -51 l23 -20 -17 20 c-16 19 -16 24 -1 70 9 28 20 58 25 68 16 32 3 29 -30
-7z"/>
<path d="M221 251 c-23 -32 -27 -51 -10 -51 6 0 9 -7 5 -15 -11 -29 12 -15 33
21 l21 35 -21 -6 c-30 -10 -20 16 12 32 23 12 23 13 2 13 -13 0 -30 -12 -42
-29z"/>
<path d="M336 134 c-4 -9 -5 -19 -2 -21 6 -6 46 20 46 29 0 15 -38 8 -44 -8z"/>
<path d="M113 117 c0 -7 -3 -25 -7 -41 -7 -27 -6 -28 10 -15 13 11 18 11 21 2
3 -7 12 -13 21 -13 14 0 14 2 3 9 -7 5 -11 13 -8 18 4 6 -3 20 -14 31 -23 26
-26 26 -26 9z"/>
</g>
</svg>
