<?xml version="1.0" standalone="no"?>
<!DOCTYPE svg PUBLIC "-//W3C//DTD SVG 20010904//EN"
 "http://www.w3.org/TR/2001/REC-SVG-20010904/DTD/svg10.dtd">
<svg version="1.0" xmlns="http://www.w3.org/2000/svg"
 width="64.000000pt" height="64.000000pt" viewBox="0 0 64.000000 64.000000"
 preserveAspectRatio="xMidYMid meet">

<g transform="translate(0.000000,64.000000) scale(0.100000,-0.100000)"
fill="#000000" stroke="none">
<path d="M253 598 c-35 -16 -63 -33 -63 -38 0 -4 -16 -11 -35 -14 -34 -7 -38
-12 -38 -48 0 -10 -5 -18 -12 -18 -8 0 -11 8 -8 20 3 11 0 20 -6 20 -6 0 -11
-4 -11 -10 0 -5 -9 -10 -20 -10 -19 0 -20 -7 -20 -178 l0 -178 140 -69 140
-69 140 69 140 69 0 171 c0 172 -4 195 -37 195 -8 0 -19 5 -26 10 -23 20 -169
90 -186 90 -9 0 -21 4 -26 9 -6 6 -35 -3 -72 -21z m44 -24 c-3 -3 -12 -4 -19
-1 -8 3 -5 6 6 6 11 1 17 -2 13 -5z m48 -24 c8 -13 -5 -13 -25 0 -13 8 -13 10
2 10 9 0 20 -4 23 -10z m-100 -16 c19 -15 19 -16 -11 -9 -23 4 -33 2 -37 -9
-4 -9 -12 -16 -19 -16 -9 0 -8 3 2 10 8 5 11 10 6 10 -5 0 -3 7 4 15 16 19 30
19 55 -1z m234 -23 c-16 -5 -33 15 -24 30 6 9 12 7 22 -7 9 -13 10 -20 2 -23z
m-79 13 c0 -2 -9 -4 -21 -4 -11 0 -18 4 -14 10 5 8 35 3 35 -6z m-243 0 c-3
-3 -12 -4 -19 -1 -8 3 -5 6 6 6 11 1 17 -2 13 -5z m143 -19 c-7 -8 -22 -15
-34 -14 -18 0 -16 3 9 14 39 18 40 18 25 0z m230 11 c0 -11 -19 -15 -25 -6 -3
5 1 10 9 10 9 0 16 -2 16 -4z m-65 -26 c3 -5 2 -10 -4 -10 -5 0 -13 5 -16 10
-3 6 -2 10 4 10 5 0 13 -4 16 -10z m-107 -11 c-12 -7 -24 -7 -35 0 -15 9 -12
10 17 10 29 0 32 -1 18 -10z m57 1 c8 -13 -5 -13 -25 0 -13 8 -13 10 2 10 9 0
20 -4 23 -10z m-120 -10 c3 -5 -1 -10 -10 -10 -9 0 -13 5 -10 10 3 6 8 10 10
10 2 0 7 -4 10 -10z m-130 -10 c8 -13 -5 -13 -25 0 -13 8 -13 10 2 10 9 0 20
-4 23 -10z m60 -10 c3 -5 -1 -10 -10 -10 -9 0 -13 5 -10 10 3 6 8 10 10 10 2
0 7 -4 10 -10z m175 -25 c0 -8 -4 -15 -8 -15 -5 0 -9 7 -9 15 0 8 4 15 9 15 4
0 8 -7 8 -15z m-53 -10 c0 -8 -4 -15 -9 -15 -4 0 -8 7 -8 15 0 8 4 15 8 15 5
0 9 -7 9 -15z m-120 -1 c-3 -3 -12 -4 -19 -1 -8 3 -5 6 6 6 11 1 17 -2 13 -5z
m133 -34 c0 -5 -7 -7 -15 -4 -8 4 -15 8 -15 10 0 2 7 4 15 4 8 0 15 -4 15 -10z"/>
</g>
</svg>
